<svg width="34" height="34" viewBox="0 0 34 34" fill="none" xmlns="http://www.w3.org/2000/svg">
<path d="M6.3934 27.6066C9.95206 30.9952 14.1893 29.6395 15.8851 28.2667C16.7606 27.557 17.1558 27.098 17.4944 26.758C18.6801 25.6572 18.6051 24.5551 17.8344 23.6739C17.5241 23.3211 15.5451 21.42 13.6467 19.4706C12.6636 18.4875 11.9864 17.7933 11.4056 17.2323C10.6306 16.4588 9.95206 15.572 8.9349 15.5975C8.00273 15.5975 7.32556 16.4191 6.47698 17.2677C5.50231 18.2424 4.78265 19.4706 4.52906 20.5728C3.76548 23.7929 4.95265 26.0808 6.3934 27.6066ZM6.3934 27.6066L2.83331 31.1652M27.6066 6.39623C24.0465 3.00473 19.8234 4.38456 18.1291 5.75873C17.2507 6.4699 16.8569 6.9289 16.5169 7.2689C15.3311 8.37106 15.4062 9.47323 16.1783 10.3544C16.2888 10.4819 16.6175 10.8077 17.0779 11.2667M27.6066 6.39623C29.0473 7.92198 30.2501 10.2354 29.4865 13.4583C29.2315 14.5605 28.5118 15.7887 27.5371 16.7648C26.69 17.612 26.0114 18.4351 25.0792 18.4351C24.0621 18.4606 23.5351 17.7239 22.7573 16.9504M27.6066 6.39623L31.1666 2.83331M17.0779 11.2667C17.901 12.0813 19.1505 13.3096 20.366 14.5591C21.3491 15.5422 22.1765 16.3894 22.7573 16.949L20.5445 19.108M17.0779 11.2667L14.892 13.4654" stroke="white" stroke-width="2" stroke-linecap="round" stroke-linejoin="round"/>
</svg>
