<svg width="197" height="197" viewBox="0 0 197 197" fill="none" xmlns="http://www.w3.org/2000/svg">
<path d="M189.716 89.5549C182.774 95.0592 174.835 99.3974 167.424 104.085C166.49 104.729 165.086 103.797 164.909 102.921C164.024 97.7811 162.787 92.4082 163.42 87.2654L163.245 87.1489C142.884 71.3525 110.057 75.8527 86.4597 79.4008C59.299 83.3646 31.5037 91.7114 10.562 109.92C8.34653 112.494 6.01451 115.245 4.03346 118.228C3.1012 119.632 1.17084 118.35 1.92761 116.83C2.2772 116.303 2.6268 115.777 2.9764 115.25C2.27445 114.784 2.09758 113.908 2.68024 113.031C4.13759 111.217 5.94591 109.636 7.57874 107.939C40.5629 61.3138 118.36 46.9752 166.669 74.7565C166.954 70.8999 167.532 66.9848 167.642 63.0114C167.579 61.2004 169.799 60.9045 170.911 61.8957C178.87 68.9504 183.97 78.4064 189.945 86.9253C190.53 87.5668 190.766 88.7348 189.716 89.5549ZM170.862 66.9199C170.4 69.9006 169.587 72.6479 169.3 75.7449C169.069 76.8559 168.076 77.2078 167.433 77.0337C167.083 77.5601 166.499 77.6783 165.856 77.504C119.253 56.6722 66.2141 62.6694 27.8252 93.0622C46.2114 83.2718 67.703 78.325 87.6207 75.3676C102.223 73.1791 116.769 72.2182 131.377 73.068C142.771 73.8069 156.038 76.2951 163.534 85.5709C163.94 83.8174 166.512 84.5138 166.514 86.0329C166.815 90.5311 167.232 94.8538 167.94 99.1176C174.009 95.3087 180.254 91.6171 185.914 87.2831C181.052 80.5145 176.657 73.044 170.862 66.9199Z" fill="#FF4D4D"/>
</svg>
