<svg width="23" height="23" viewBox="0 0 23 23" fill="none" xmlns="http://www.w3.org/2000/svg">
<path d="M13.4167 2.875V4.79167H16.8571L7.43667 14.2121L8.78792 15.5633L18.2083 6.14292V9.58333H20.125V2.875M18.2083 18.2083H4.79167V4.79167H11.5V2.875H4.79167C4.28333 2.875 3.79582 3.07693 3.43638 3.43638C3.07693 3.79582 2.875 4.28333 2.875 4.79167V18.2083C2.875 18.7167 3.07693 19.2042 3.43638 19.5636C3.79582 19.9231 4.28333 20.125 4.79167 20.125H18.2083C18.7167 20.125 19.2042 19.9231 19.5636 19.5636C19.9231 19.2042 20.125 18.7167 20.125 18.2083V11.5H18.2083V18.2083Z" fill="#4493F8"/>
</svg>
