<svg width="22" height="22" viewBox="0 0 22 22" fill="none" xmlns="http://www.w3.org/2000/svg">
<path d="M16.9015 4.54137H15.125V3.25071C15.125 3.01054 14.9142 2.78137 14.6667 2.79237C14.5458 2.79472 14.4306 2.84376 14.3452 2.92921C14.2597 3.01466 14.2107 3.12988 14.2083 3.25071V4.54137H7.79166V3.25071C7.79166 3.01054 7.58082 2.78137 7.33332 2.79237C7.2125 2.79472 7.09728 2.84376 7.01183 2.92921C6.92638 3.01466 6.87734 3.12988 6.87499 3.25071V4.54137H5.09849C4.49093 4.5421 3.90845 4.78378 3.47884 5.21339C3.04923 5.643 2.80755 6.22548 2.80682 6.83304V16.9164C2.80682 18.1805 3.83532 19.208 5.09849 19.208H16.9006C18.1647 19.208 19.1922 18.1805 19.1922 16.9164V6.83304C19.1922 6.22541 18.9509 5.64265 18.5213 5.21291C18.0918 4.78317 17.5091 4.54162 16.9015 4.54137ZM5.09849 5.45804H6.87499V6.00071C6.87499 6.24087 7.08582 6.47004 7.33332 6.45904C7.58174 6.44804 7.79166 6.25737 7.79166 6.00071V5.45804H14.2083V6.00071C14.2083 6.24087 14.4192 6.47004 14.6667 6.45904C14.9151 6.44804 15.125 6.25737 15.125 6.00071V5.45804H16.9006C17.6587 5.45804 18.2756 6.07496 18.2756 6.83304V8.28504H3.72349V6.83304C3.72349 6.07496 4.34041 5.45804 5.09849 5.45804ZM16.9015 18.2914H5.09849C4.34041 18.2914 3.72349 17.6745 3.72349 16.9164V9.20171H18.2756V16.9164C18.2756 17.2809 18.1308 17.6305 17.8732 17.8883C17.6155 18.1462 17.266 18.2911 16.9015 18.2914Z" fill="#9B9B9B"/>
</svg>
