<svg width="25" height="25" viewBox="0 0 25 25" fill="none" xmlns="http://www.w3.org/2000/svg">
<path d="M22.2119 16.9922C22.2379 17.0365 22.2549 17.0856 22.2619 17.1365C22.2689 17.1874 22.2658 17.2392 22.2527 17.289C22.2396 17.3387 22.2169 17.3853 22.1857 17.4262C22.1546 17.4671 22.1157 17.5015 22.0713 17.5273L12.6963 22.9961C12.6369 23.0304 12.5695 23.0484 12.501 23.0484C12.4324 23.0484 12.365 23.0304 12.3057 22.9961L2.93066 17.5273C2.84564 17.4733 2.78479 17.3885 2.76082 17.2906C2.73685 17.1928 2.75161 17.0894 2.80203 17.0022C2.85245 16.915 2.93463 16.8506 3.03139 16.8225C3.12815 16.7945 3.23202 16.8049 3.32129 16.8516L12.501 22.2061L21.6807 16.8516C21.7699 16.8003 21.8757 16.7863 21.9752 16.8127C22.0747 16.839 22.1597 16.9035 22.2119 16.9922ZM21.6797 12.1621L12.5 17.5166L3.32031 12.1621C3.23104 12.1154 3.12717 12.105 3.03041 12.1331C2.93365 12.1611 2.85148 12.2255 2.80106 12.3127C2.75064 12.4 2.73587 12.5033 2.75984 12.6012C2.78381 12.699 2.84466 12.7838 2.92969 12.8379L12.3047 18.3066C12.3641 18.3409 12.4314 18.359 12.5 18.359C12.5686 18.359 12.6359 18.3409 12.6953 18.3066L22.0703 12.8379C22.1553 12.7838 22.2162 12.699 22.2402 12.6012C22.2641 12.5033 22.2494 12.4 22.1989 12.3127C22.1485 12.2255 22.0663 12.1611 21.9696 12.1331C21.8728 12.105 21.769 12.1154 21.6797 12.1621ZM2.73438 7.8125C2.73445 7.744 2.75253 7.67672 2.78681 7.61741C2.82109 7.5581 2.87036 7.50886 2.92969 7.47461L12.3047 2.00586C12.3641 1.97157 12.4314 1.95352 12.5 1.95352C12.5686 1.95352 12.6359 1.97157 12.6953 2.00586L22.0703 7.47461C22.1295 7.50894 22.1786 7.55823 22.2128 7.61753C22.247 7.67683 22.2649 7.74406 22.2649 7.8125C22.2649 7.88093 22.247 7.94816 22.2128 8.00746C22.1786 8.06676 22.1295 8.11605 22.0703 8.15039L12.6953 13.6191C12.6359 13.6534 12.5686 13.6715 12.5 13.6715C12.4314 13.6715 12.3641 13.6534 12.3047 13.6191L2.92969 8.15039C2.87036 8.11614 2.82109 8.06689 2.78681 8.00758C2.75253 7.94828 2.73445 7.881 2.73438 7.8125ZM3.90039 7.8125L12.5 12.8291L21.0996 7.8125L12.5 2.79589L3.90039 7.8125Z" fill="#9B9B9B"/>
</svg>
