<svg width="318" height="84" viewBox="0 0 318 84" fill="none" xmlns="http://www.w3.org/2000/svg">
<path d="M22.2656 54.7188C14.7969 53.875 9.21875 52.1406 5.53125 49.5156C1.84375 46.8594 0.453125 43.4219 1.35938 39.2031C2.29688 34.9844 5.92187 30.0938 12.2344 24.5312C14.5156 22.5625 17.7344 20.0938 21.8906 17.125C26.0781 14.1562 30.6406 11.2969 35.5781 8.54688C40.5469 5.76563 45.3594 3.6875 50.0156 2.3125C54.6719 0.9375 58.625 0.84375 61.875 2.03125C64.3125 3.09375 65.6562 4.76562 65.9062 7.04688C66.1875 9.29688 65.8281 11.7656 64.8281 14.4531C63.8594 17.1406 62.6719 19.6719 61.2656 22.0469C59.8906 24.4219 58.7344 26.2656 57.7969 27.5781C56.4219 29.6406 54.2656 32.7031 51.3281 36.7656C47.8906 41.6094 44.1406 46.9531 40.0781 52.7969C36.0469 58.6094 32.5 63.9844 29.4375 68.9219C26.375 73.8906 24.5938 77.4531 24.0938 79.6094C24.0625 80.0469 24.1406 80.4531 24.3281 80.8281C24.4219 81.0469 24.4688 81.25 24.4688 81.4375C24.5 81.6562 24.4062 81.8594 24.1875 82.0469C23.7188 82.3281 23.3281 82.3281 23.0156 82.0469C22.7031 81.7969 22.4844 81.3906 22.3594 80.8281C22.2344 80.2969 22.2188 79.75 22.3125 79.1875C22.8438 76.8438 24.7812 72.9219 28.125 67.4219C31.4688 61.9219 35.2656 56.0156 39.5156 49.7031C43.7969 43.3906 47.625 37.8281 51 33.0156C53.0625 30.0469 54.6406 27.7656 55.7344 26.1719C56.3594 25.2656 57.2812 23.7969 58.5 21.7656C59.7188 19.7344 60.8438 17.5312 61.875 15.1562C62.9375 12.75 63.4844 10.5625 63.5156 8.59375C63.5469 6.59375 62.6875 5.1875 60.9375 4.375C58.0312 3.3125 54.3438 3.5 49.875 4.9375C45.4062 6.375 40.75 8.46875 35.9062 11.2188C31.0625 13.9688 26.625 16.7812 22.5938 19.6562C18.5625 22.5 15.5156 24.8125 13.4531 26.5938C9.26562 30.25 6.45312 33.4375 5.01562 36.1562C3.60938 38.8438 3.17188 41.125 3.70312 43C4.23438 44.875 5.32812 46.4062 6.98438 47.5938C8.64062 48.75 10.4375 49.6406 12.375 50.2656C14.3438 50.8594 16.0625 51.2344 17.5312 51.3906C19 51.5156 19.7969 51.5 19.9219 51.3438C20.0469 51 20.2656 50.7656 20.5781 50.6406C20.8906 50.5156 21.2188 50.5156 21.5625 50.6406C22.8438 51.1719 23.6406 51.6719 23.9531 52.1406C24.3906 52.8281 24.4219 53.4375 24.0469 53.9688C23.6719 54.5 23.0781 54.75 22.2656 54.7188ZM53.0625 58.6094C53.3125 58.4531 53.6094 58.0156 53.9531 57.2969C54.2969 56.5781 54.6875 55.7031 55.125 54.6719C55.9375 52.6094 56.8906 50.5938 57.9844 48.625C59.0781 46.6562 60.3125 45.5469 61.6875 45.2969C62.125 45.3906 62.4531 45.6094 62.6719 45.9531C62.8906 46.2656 62.8281 46.6406 62.4844 47.0781C61.9531 47.7969 61.4844 48.375 61.0781 48.8125C60.7031 49.2188 60.3125 49.625 59.9062 50.0312C59.5 50.4375 59 50.9531 58.4062 51.5781C58 52.6094 57.6094 53.6406 57.2344 54.6719C57.0781 55.1719 56.9062 55.6562 56.7188 56.125C56.625 56.4688 56.5625 56.7188 56.5312 56.875C56.5312 57 56.5781 57.0625 56.6719 57.0625C56.7969 57.0625 56.9531 57.0312 57.1406 56.9688C57.1719 56.9375 57.2031 56.9219 57.2344 56.9219C57.8594 56.7344 58.2969 56.75 58.5469 56.9688C58.7969 57.1562 58.875 57.4062 58.7812 57.7188C58.6875 58.0312 58.4531 58.2969 58.0781 58.5156C57.7344 58.7031 57.3906 58.8125 57.0469 58.8438C56.6406 58.9062 56.25 59.0625 55.875 59.3125C55.6562 59.4688 55.4375 59.7031 55.2188 60.0156C55 60.3281 54.8125 60.625 54.6562 60.9062C53.4688 63.1875 51.7812 65.3281 49.5938 67.3281C47.4062 69.3281 44.8125 70.5312 41.8125 70.9375C39.4688 71.1562 38.3281 70.8594 38.3906 70.0469C38.4531 69.2344 39.2812 68.125 40.875 66.7188C42.4375 65.3438 44.3438 63.9219 46.5938 62.4531C48.8438 60.9844 51 59.7031 53.0625 58.6094ZM50.6719 63.0625C50.8281 62.875 51 62.6562 51.1875 62.4062C51.375 62.1875 51.5312 61.9688 51.6562 61.75C51.7812 61.5312 51.8438 61.3594 51.8438 61.2344C51.8438 61.1406 51.75 61.125 51.5625 61.1875C50.875 61.5 49.9375 62.0625 48.75 62.875C47.5312 63.7188 46.2969 64.6094 45.0469 65.5469C43.7969 66.5156 42.7969 67.3438 42.0469 68.0312C41.2656 68.7188 40.9688 69.0781 41.1562 69.1094C42.1875 69.1719 43.6719 68.5938 45.6094 67.375C47.5469 66.1875 49.2344 64.75 50.6719 63.0625ZM90.9375 51.625C91.7812 51.1875 92.2812 51.1562 92.4375 51.5312C92.5938 51.9062 92.2969 52.3594 91.5469 52.8906C90.3594 53.6094 88.8281 54.3125 86.9531 55C85.1094 55.6562 83.4531 55.8594 81.9844 55.6094C80.5156 55.3281 79.75 54.1406 79.6875 52.0469V51.8125C79.7188 51.375 79.6875 51.1562 79.5938 51.1562C79.5 51.125 79.2344 51.25 78.7969 51.5312C73.9531 54.6875 70.3906 56.6562 68.1094 57.4375C65.8594 58.2188 64.5312 58.25 64.125 57.5312C63.625 56.5312 64.25 54.9844 66 52.8906C67.75 50.7656 70 48.75 72.75 46.8438C75.5312 44.9375 78.1875 43.7969 80.7188 43.4219C83.25 43.0156 85.0312 44.0156 86.0625 46.4219C86.1562 46.7344 86.1094 47.0156 85.9219 47.2656C85.7344 47.5156 85.4844 47.6875 85.1719 47.7812C84.8594 47.875 84.5 47.8125 84.0938 47.5938C83.7188 47.375 83.4531 47.1094 83.2969 46.7969C83.2969 46.7344 83.3125 46.6719 83.3438 46.6094C83.375 46.5469 83.4062 46.4844 83.4375 46.4219C83.4688 46.3594 83.5 46.2969 83.5312 46.2344C83.5625 46.1719 83.5625 46.1094 83.5312 46.0469C82.75 44.9844 81.4062 44.8281 79.5 45.5781C77.5938 46.3281 75.5781 47.5 73.4531 49.0938C71.3281 50.6875 69.5312 52.2031 68.0625 53.6406C66.5938 55.0469 65.9062 55.9062 66 56.2188C66.125 56.5312 67.3594 56.0156 69.7031 54.6719C72.0469 53.3281 75.8906 50.8125 81.2344 47.125C81.5156 46.9688 81.7969 46.9219 82.0781 46.9844C82.3906 47.0156 82.6406 47.1719 82.8281 47.4531C83.0469 47.8281 83.0625 48.2031 82.875 48.5781C81.6875 51.1406 81.5469 52.7188 82.4531 53.3125C83.3906 53.9062 84.7188 53.9531 86.4375 53.4531C88.1875 52.9531 89.6875 52.3438 90.9375 51.625ZM115.688 51.625C116.531 51.1875 117.031 51.1562 117.188 51.5312C117.344 51.9062 117.047 52.3594 116.297 52.8906C115.109 53.6094 113.578 54.3125 111.703 55C109.859 55.6562 108.203 55.8594 106.734 55.6094C105.266 55.3281 104.5 54.1406 104.438 52.0469V51.8125C104.469 51.375 104.438 51.1562 104.344 51.1562C104.25 51.125 103.984 51.25 103.547 51.5312C98.7031 54.6875 95.1406 56.6562 92.8594 57.4375C90.6094 58.2188 89.2812 58.25 88.875 57.5312C88.375 56.5312 89 54.9844 90.75 52.8906C92.5 50.7656 94.75 48.75 97.5 46.8438C100.281 44.9375 102.938 43.7969 105.469 43.4219C108 43.0156 109.781 44.0156 110.812 46.4219C110.906 46.7344 110.859 47.0156 110.672 47.2656C110.484 47.5156 110.234 47.6875 109.922 47.7812C109.609 47.875 109.25 47.8125 108.844 47.5938C108.469 47.375 108.203 47.1094 108.047 46.7969C108.047 46.7344 108.062 46.6719 108.094 46.6094C108.125 46.5469 108.156 46.4844 108.188 46.4219C108.219 46.3594 108.25 46.2969 108.281 46.2344C108.312 46.1719 108.312 46.1094 108.281 46.0469C107.5 44.9844 106.156 44.8281 104.25 45.5781C102.344 46.3281 100.328 47.5 98.2031 49.0938C96.0781 50.6875 94.2812 52.2031 92.8125 53.6406C91.3438 55.0469 90.6562 55.9062 90.75 56.2188C90.875 56.5312 92.1094 56.0156 94.4531 54.6719C96.7969 53.3281 100.641 50.8125 105.984 47.125C106.266 46.9688 106.547 46.9219 106.828 46.9844C107.141 47.0156 107.391 47.1719 107.578 47.4531C107.797 47.8281 107.812 48.2031 107.625 48.5781C106.438 51.1406 106.297 52.7188 107.203 53.3125C108.141 53.9062 109.469 53.9531 111.188 53.4531C112.938 52.9531 114.438 52.3438 115.688 51.625ZM122.531 46.8906C121.219 48.2031 119.891 49.9844 118.547 52.2344C117.234 54.4531 116.484 56.1719 116.297 57.3906C116.297 58.2031 117 58.4219 118.406 58.0469C119.844 57.7031 121.531 57.0781 123.469 56.1719C125.438 55.2344 127.188 54.3281 128.719 53.4531C130.281 52.5781 131.172 52.0469 131.391 51.8594C131.859 51.5156 132.234 51.375 132.516 51.4375C132.797 51.5 132.938 51.6562 132.938 51.9062C132.938 52.1562 132.781 52.4219 132.469 52.7031C131.594 53.4219 130.031 54.4375 127.781 55.75C125.531 57.0625 123.203 58.1719 120.797 59.0781C118.391 59.9844 116.531 60.1719 115.219 59.6406C113.875 59.1094 113.703 57.375 114.703 54.4375C115.547 52.2188 116.984 49.8438 119.016 47.3125C121.047 44.75 122.891 43.2344 124.547 42.7656C125.297 42.6406 125.906 42.7656 126.375 43.1406C126.875 43.5156 127.188 44.0156 127.312 44.6406C127.188 45.3281 126.891 45.875 126.422 46.2812C125.953 46.6562 125.469 46.875 124.969 46.9375C124.469 47 124.109 46.875 123.891 46.5625C123.859 46.4688 123.828 46.3906 123.797 46.3281C123.766 46.2031 123.719 46.125 123.656 46.0938C123.594 46.0312 123.469 46.0625 123.281 46.1875C123.125 46.3125 122.875 46.5469 122.531 46.8906ZM132.984 62.2188C132.484 62.3438 132.094 62.25 131.812 61.9375C131.562 61.6562 131.422 61.2812 131.391 60.8125C131.359 60.375 131.422 59.9688 131.578 59.5938C131.953 58.9375 132.469 58.6406 133.125 58.7031C133.812 58.7969 134.344 59.1406 134.719 59.7344C134.875 60.0469 134.906 60.3594 134.812 60.6719C134.719 60.9844 134.531 61.2344 134.25 61.4219C134 61.5469 133.766 61.7031 133.547 61.8906C133.297 62.0469 133.109 62.1562 132.984 62.2188ZM187.125 28.5156C186.406 26.3906 186.766 24.2344 188.203 22.0469C189.641 19.8281 191.453 17.8125 193.641 16C195.828 14.1875 197.703 12.7969 199.266 11.8281C200.609 10.8906 202.547 9.75 205.078 8.40625C207.641 7.03125 210.328 5.90625 213.141 5.03125C215.984 4.125 218.484 3.92187 220.641 4.42188C222.828 4.92188 224.219 6.57812 224.812 9.39062C225.219 12.5156 224.156 16.8281 221.625 22.3281C219.125 27.7969 216.031 33.5469 212.344 39.5781C208.656 45.5781 205.25 50.9375 202.125 55.6562C200.344 58.4062 198.906 60.6562 197.812 62.4062C197.031 63.5938 196.719 64.25 196.875 64.375C197.031 64.5 197.719 64.2812 198.938 63.7188C201.312 62.6875 204.469 61.4062 208.406 59.875C212.375 58.375 216.656 56.9375 221.25 55.5625C225.875 54.1875 230.391 53.2031 234.797 52.6094C239.203 52.0156 243.047 52.1406 246.328 52.9844C249.609 53.7969 251.891 55.6406 253.172 58.5156C253.203 58.5469 253.219 58.5781 253.219 58.6094C253.344 58.9219 253.422 59.2344 253.453 59.5469C253.516 59.8906 253.391 60.1406 253.078 60.2969C252.703 60.4219 252.406 60.3594 252.188 60.1094C252 59.8906 251.859 59.625 251.766 59.3125C250.578 56.6875 248.281 55.125 244.875 54.625C241.469 54.125 237.453 54.3281 232.828 55.2344C228.234 56.1094 223.547 57.3438 218.766 58.9375C214.016 60.5312 209.688 62.125 205.781 63.7188C201.906 65.3438 198.984 66.6094 197.016 67.5156C195.953 67.9844 195.141 68.375 194.578 68.6875C194.047 69.0312 193.594 69.4375 193.219 69.9062C192.875 70.4062 192.438 71.0938 191.906 71.9688C191.781 72.1875 191.656 72.4219 191.531 72.6719C191.188 73.2031 190.859 73.75 190.547 74.3125C190.172 74.9375 189.797 75.5469 189.422 76.1406C189.109 76.6094 188.781 76.8594 188.438 76.8906C188.094 76.9219 187.859 76.7656 187.734 76.4219C187.609 76.1094 187.703 75.6406 188.016 75.0156C188.422 74.3281 188.828 73.6562 189.234 73C189.391 72.7188 189.547 72.4375 189.703 72.1562C189.766 72.0938 189.859 71.9688 189.984 71.7812C190.109 71.5625 190.25 71.3125 190.406 71.0312C190.562 70.7812 190.703 70.5469 190.828 70.3281C190.641 70.4219 190.422 70.5156 190.172 70.6094C189.922 70.7344 189.688 70.8438 189.469 70.9375C189.281 71.0625 189.141 71.1406 189.047 71.1719C183.078 73.9219 177.25 76.9219 171.562 80.1719C171.188 80.4219 170.906 80.6406 170.719 80.8281C170.531 81.0469 170.344 81.3438 170.156 81.7188C169.75 82.3438 169.219 82.7969 168.562 83.0781C167.906 83.3906 167.219 83.625 166.5 83.7812C166.156 83.8438 165.797 83.8438 165.422 83.7812C165.078 83.75 164.797 83.5781 164.578 83.2656C164.234 82.6406 164.266 82.0156 164.672 81.3906C165.109 80.7656 165.594 80.2969 166.125 79.9844C173.969 75.3594 182.047 71.2031 190.359 67.5156C191.328 67.0781 192.031 66.7344 192.469 66.4844C192.938 66.2344 193.297 65.9531 193.547 65.6406C193.797 65.3281 194.094 64.875 194.438 64.2812C194.656 63.875 194.938 63.3906 195.281 62.8281C195.906 61.7344 196.984 60 198.516 57.625C200.766 54.125 203.422 49.875 206.484 44.875C209.547 39.8438 212.469 34.7344 215.25 29.5469C218.062 24.3281 220.156 19.6719 221.531 15.5781C222.938 11.4844 223.062 8.64062 221.906 7.04688C220.562 5.64062 218.266 5.42187 215.016 6.39062C211.766 7.35938 208.266 8.98437 204.516 11.2656C200.766 13.5469 197.469 15.9844 194.625 18.5781C191.781 21.1406 190.094 23.3281 189.562 25.1406C189.5 25.4531 189.453 25.6875 189.422 25.8438C189.422 26 189.438 26.1094 189.469 26.1719C189.5 26.2031 189.531 26.2344 189.562 26.2656C189.625 26.2969 189.672 26.3438 189.703 26.4062C189.734 26.4375 189.781 26.5 189.844 26.5938C190.094 27.3438 190.047 27.9844 189.703 28.5156C189.359 29.0156 188.906 29.2969 188.344 29.3594C187.812 29.3906 187.406 29.1094 187.125 28.5156ZM276.047 36.4375C276.891 36.5 277.281 36.7656 277.219 37.2344C277.156 37.6719 276.844 38.125 276.281 38.5938C275.75 39.0312 275.172 39.3281 274.547 39.4844C273.953 39.6094 273.516 39.4062 273.234 38.875C273.172 38.7188 273.188 38.5781 273.281 38.4531C273.406 38.2969 273.562 38.1719 273.75 38.0781C273.969 37.9531 274.156 37.8438 274.312 37.75C274.438 37.7188 274.531 37.6875 274.594 37.6562C274.656 37.625 274.688 37.5938 274.688 37.5625C274.719 37.2188 274.859 36.9375 275.109 36.7188C275.359 36.5 275.672 36.4062 276.047 36.4375ZM265.594 58.7031C264.375 58.7031 263.656 58.3125 263.438 57.5312C263.219 56.75 263.328 55.7656 263.766 54.5781C264.172 53.3594 264.75 52.0938 265.5 50.7812C266.25 49.4375 267 48.2188 267.75 47.125C268.5 46 269.094 45.1406 269.531 44.5469C269.656 44.3281 269.766 44.1719 269.859 44.0781C269.672 43.5781 269.844 43.0312 270.375 42.4375C270.906 41.8125 271.531 41.3594 272.25 41.0781C272.969 40.7656 273.484 40.8125 273.797 41.2188C274.016 41.5625 274.062 41.8906 273.938 42.2031C273.812 42.5156 273.641 42.8125 273.422 43.0938C273.359 43.1562 273.297 43.2344 273.234 43.3281C272.047 45.0156 270.75 46.9062 269.344 49C267.969 51.0625 266.938 52.7969 266.25 54.2031C265.719 55.4219 266.047 56.0938 267.234 56.2188C268.453 56.3438 270.016 56.1562 271.922 55.6562C273.859 55.1562 275.625 54.625 277.219 54.0625C278.844 53.4688 279.812 53.0781 280.125 52.8906C280.469 52.7031 280.734 52.6719 280.922 52.7969C281.141 52.9219 281.234 53.125 281.203 53.4062C281.172 53.6562 280.953 53.9219 280.547 54.2031C278.516 55.3281 275.859 56.3594 272.578 57.2969C269.328 58.2344 267 58.7031 265.594 58.7031ZM284.906 48.9531C284.844 49.0156 284.75 49.0625 284.625 49.0938C284.531 49.125 284.422 49.1562 284.297 49.1875C284.203 49.2188 284.141 49.2812 284.109 49.375C283.703 49.9375 283.25 50.6719 282.75 51.5781C282.25 52.4844 281.828 53.4062 281.484 54.3438C281.172 55.25 281.047 56.0312 281.109 56.6875C281.172 57.3125 281.578 57.625 282.328 57.625C284.734 57.375 287.453 56.2031 290.484 54.1094C293.516 52.0156 296.125 50.0469 298.312 48.2031C298.719 47.8906 299.078 47.6094 299.391 47.3594C299.953 46.8594 300.625 46.3594 301.406 45.8594C302.188 45.3594 302.938 45.0312 303.656 44.875C304.375 44.7188 304.891 44.8906 305.203 45.3906C305.266 46.1406 305.125 47.0781 304.781 48.2031C304.188 50.8906 304.281 52.625 305.062 53.4062C305.844 54.1875 307.047 54.375 308.672 53.9688C310.328 53.5625 312.141 52.9219 314.109 52.0469C314.734 51.7344 315.156 51.6406 315.375 51.7656C315.594 51.8906 315.641 52.1094 315.516 52.4219C315.391 52.7344 315.094 53 314.625 53.2188C312.406 54.375 310.266 55.1719 308.203 55.6094C306.172 56.0156 304.547 55.8281 303.328 55.0469C302.109 54.2656 301.625 52.6562 301.875 50.2188C302.031 49.125 301.984 48.5625 301.734 48.5312C301.516 48.5 300.938 48.8906 300 49.7031C299.969 49.7344 299.922 49.7656 299.859 49.7969C299.609 50.0156 299.328 50.25 299.016 50.5C296.797 52.4062 294.219 54.3281 291.281 56.2656C288.344 58.2031 285.484 59.2812 282.703 59.5C281.703 59.5312 280.844 59.3594 280.125 58.9844C279 58.1406 278.516 57.0312 278.672 55.6562C278.797 54.2812 279.234 52.875 279.984 51.4375C280.734 50 281.438 48.7812 282.094 47.7812C282.25 47.5 282.391 47.25 282.516 47.0312C282.828 46.5625 283.234 46.2188 283.734 46C284.266 45.75 284.719 45.6562 285.094 45.7188C285.438 45.75 285.703 45.8594 285.891 46.0469C286.109 46.2344 286.156 46.5625 286.031 47.0312C285.906 47.5 285.531 48.1406 284.906 48.9531ZM315.797 62.2188C315.297 62.3438 314.906 62.25 314.625 61.9375C314.375 61.6562 314.234 61.2812 314.203 60.8125C314.172 60.375 314.234 59.9688 314.391 59.5938C314.766 58.9375 315.281 58.6406 315.938 58.7031C316.625 58.7969 317.156 59.1406 317.531 59.7344C317.688 60.0469 317.719 60.3594 317.625 60.6719C317.531 60.9844 317.344 61.2344 317.062 61.4219C316.812 61.5469 316.578 61.7031 316.359 61.8906C316.109 62.0469 315.922 62.1562 315.797 62.2188Z" fill="#5F5F5F" fill-opacity="0.7"/>
</svg>
