<svg width="133" height="27" viewBox="0 0 133 27" fill="none" xmlns="http://www.w3.org/2000/svg">
<path d="M1.07812 15.554C1.07812 15.554 1.08203 15.55 1.08984 15.5422C1.13672 15.5032 1.25 15.3977 1.42969 15.2258L7.14844 6.03833C7.57031 5.77271 7.84766 5.7063 7.98047 5.83911C8.11328 5.96411 8.15625 6.19849 8.10938 6.54224C8.07031 6.87817 7.99219 7.22192 7.875 7.57349C7.75781 7.92505 7.66016 8.19067 7.58203 8.37036C7.08984 9.42505 6.44141 10.4719 5.63672 11.511C4.83203 12.5422 4.05469 13.4485 3.30469 14.2297C2.55469 15.011 2.01953 15.5461 1.69922 15.8352L1.00781 16.8782C0.804688 17.175 0.746094 17.3 0.832031 17.2532C0.917969 17.2141 1.09375 17.0735 1.35938 16.8313C1.98438 16.2454 2.66016 15.636 3.38672 15.0032C4.12109 14.3704 4.80469 13.8469 5.4375 13.4329C6.07812 13.011 6.57031 12.8313 6.91406 12.8938C7.36719 13.011 7.46484 13.5344 7.20703 14.4641C7.01953 15.1985 6.9375 15.7532 6.96094 16.1282C6.99219 16.5032 7.09766 16.718 7.27734 16.7727C7.76172 16.8977 8.64062 16.5852 9.91406 15.8352C9.99219 15.7883 10.0586 15.7844 10.1133 15.8235C10.1758 15.8625 10.2031 15.9211 10.1953 15.9993C10.1953 16.0696 10.1445 16.1399 10.043 16.2102C9.36328 16.6399 8.77734 16.9524 8.28516 17.1477C7.80078 17.343 7.39844 17.3899 7.07812 17.2883C6.35156 17.093 6.23828 16.0735 6.73828 14.2297C6.89453 13.6125 6.82031 13.3391 6.51562 13.4094C6.21094 13.4797 5.77344 13.7532 5.20312 14.2297C4.63281 14.6985 4.02344 15.2375 3.375 15.8469C2.63281 16.5344 1.96484 17.1165 1.37109 17.593C0.777344 18.0696 0.386719 18.2493 0.199219 18.1321C0.0664062 18.0383 0.0117188 17.9055 0.0351562 17.7336C0.0585938 17.5696 0.121094 17.3938 0.222656 17.2063C0.316406 17.0188 0.40625 16.8586 0.492188 16.7258C0.523438 16.679 0.550781 16.636 0.574219 16.5969L0.84375 16.1633C0.914062 16.0227 0.957031 15.8977 0.972656 15.7883C0.988281 15.6868 1.02344 15.6086 1.07812 15.554ZM4.38281 11.6868C3.35938 13.2258 3.44141 13.2532 4.62891 11.7688C5.44922 10.8157 6.13281 9.82739 6.67969 8.80396C7 8.17896 7.17578 7.79614 7.20703 7.65552C7.24609 7.51489 7.18359 7.54614 7.01953 7.74927C6.85547 7.95239 6.63672 8.25317 6.36328 8.65161C6.09766 9.05005 5.82031 9.47192 5.53125 9.91724C5.24219 10.3547 4.99219 10.7415 4.78125 11.0774C4.57812 11.3899 4.44531 11.593 4.38281 11.6868ZM11.8477 17.3469C11.3008 17.8782 10.7852 18.0735 10.3008 17.9329C9.82422 17.7922 9.59375 17.3782 9.60938 16.6907C9.625 15.9954 10.1133 15.0891 11.0742 13.9719C11.4414 13.5735 11.7344 13.343 11.9531 13.2805C12.1328 13.218 12.2695 13.2258 12.3633 13.304C12.457 13.3743 12.4609 13.5188 12.375 13.7375C12.2109 13.9094 12.0781 14.0149 11.9766 14.054C11.875 14.093 11.793 14.1086 11.7305 14.1008C11.6992 14.1008 11.668 14.1047 11.6367 14.1125C11.6133 14.1125 11.5898 14.1282 11.5664 14.1594C10.8242 15.0422 10.3711 15.7532 10.207 16.2922C10.0508 16.8313 10.0742 17.1946 10.2773 17.3821C10.4805 17.5774 10.7539 17.5852 11.0977 17.4055C11.2539 17.3118 11.4297 17.136 11.625 16.8782C11.8203 16.6204 11.9805 16.3665 12.1055 16.1165C12.1289 16.0774 12.1484 16.0461 12.1641 16.0227C12.1875 15.9915 12.1992 15.9641 12.1992 15.9407C12.1992 15.9172 12.1797 15.8899 12.1406 15.8586C12 15.718 11.8789 15.5344 11.7773 15.3079C11.6758 15.0735 11.6562 14.8625 11.7188 14.675C11.7812 14.55 11.8984 14.4954 12.0703 14.511C12.2422 14.5266 12.4062 14.6165 12.5625 14.7805C12.7188 14.9446 12.8008 15.1907 12.8086 15.5188C12.8242 15.7532 12.9062 15.9172 13.0547 16.011C13.2031 16.0969 13.3672 16.1282 13.5469 16.1047C13.7266 16.0735 13.875 16.0032 13.9922 15.8938C14.0938 15.8 14.1641 15.7766 14.2031 15.8235C14.25 15.8625 14.2461 15.9329 14.1914 16.0344C14.1367 16.136 14.0156 16.2297 13.8281 16.3157C13.5312 16.4329 13.3008 16.4758 13.1367 16.4446C12.9805 16.4133 12.8633 16.3704 12.7852 16.3157C12.7305 16.2688 12.6797 16.2493 12.6328 16.2571C12.5859 16.2571 12.5391 16.304 12.4922 16.3977C12.4141 16.5383 12.3125 16.7024 12.1875 16.8899C12.0703 17.0774 11.957 17.2297 11.8477 17.3469ZM15.0586 16.1868C14.543 16.5618 14.1992 16.7063 14.0273 16.6204C13.8633 16.5344 13.8242 16.3157 13.9102 15.9641C13.9883 15.6047 14.1445 15.2102 14.3789 14.7805C14.6914 14.2024 14.9336 13.8391 15.1055 13.6907C15.2773 13.5422 15.457 13.5305 15.6445 13.6555C15.7383 13.8196 15.7383 13.9797 15.6445 14.136C15.5586 14.2922 15.4297 14.4407 15.2578 14.5813C15.0703 14.7375 14.9336 14.886 14.8477 15.0266C14.7617 15.1672 14.6719 15.3391 14.5781 15.5422C14.5547 15.6047 14.5273 15.6672 14.4961 15.7297C14.4258 15.8704 14.3984 15.9602 14.4141 15.9993C14.4375 16.0305 14.5273 15.9797 14.6836 15.8469C14.9492 15.6438 15.2422 15.3977 15.5625 15.1086C15.875 14.8352 16.1719 14.5891 16.4531 14.3704C16.7422 14.1516 16.9844 14.0227 17.1797 13.9836C17.6094 13.9524 17.8984 14.1477 18.0469 14.5696C18.1953 14.9915 18.2891 15.3977 18.3281 15.7883C18.3359 15.8665 18.3438 15.9368 18.3516 15.9993C18.4141 16.3977 18.4961 16.761 18.5977 17.0891C18.6992 17.4172 18.8203 17.6321 18.9609 17.7336C19.1016 17.8352 19.3086 17.7805 19.582 17.5696C19.8633 17.3586 20.25 16.9211 20.7422 16.2571C21.2422 15.5852 21.8789 14.6204 22.6523 13.3625C22.707 13.2532 22.7773 13.1868 22.8633 13.1633C22.957 13.1399 23.0234 13.1633 23.0625 13.2336C23.1094 13.304 23.0898 13.4211 23.0039 13.5852C22.8945 13.7571 22.7773 13.9524 22.6523 14.1711C22.2852 14.7961 21.8633 15.468 21.3867 16.1868C20.9102 16.8977 20.4258 17.468 19.9336 17.8977C19.4492 18.3352 19.0078 18.4485 18.6094 18.2375C18.2188 18.0344 17.9258 17.3196 17.7305 16.093C17.6758 15.6868 17.6094 15.3235 17.5312 15.0032C17.4531 14.675 17.3633 14.5071 17.2617 14.4993C17.1133 14.5461 16.8789 14.6946 16.5586 14.9446C16.2461 15.1946 15.9375 15.4524 15.6328 15.718C15.3828 15.929 15.1914 16.0852 15.0586 16.1868ZM27.7362 0.263986C27.5922 0.823986 27.4082 1.43199 27.1842 2.08799C26.9602 2.74399 26.7122 3.39999 26.4402 4.05599C26.1842 4.69599 25.9282 5.30399 25.6722 5.87999H24.1122C24.2242 5.43199 24.3362 4.95199 24.4482 4.43999C24.5762 3.92799 24.6882 3.41599 24.7842 2.90399C24.8962 2.37599 24.9922 1.86399 25.0722 1.36799C25.1682 0.871986 25.2482 0.415986 25.3122 -1.4782e-05H27.5682L27.7362 0.263986ZM32.9531 14.054C32.5781 14.429 32.0938 14.886 31.5 15.425C30.9062 15.9563 30.293 16.4641 29.6602 16.9485C29.0273 17.425 28.4727 17.7571 27.9961 17.9446C27.5117 18.1399 27.1992 18.0774 27.0586 17.7571C26.9727 17.468 27.125 17.0071 27.5156 16.3743C27.8984 15.7415 28.4141 15.0891 29.0625 14.4172C29.7109 13.7454 30.3945 13.1985 31.1133 12.7766C31.832 12.3547 32.4844 12.2063 33.0703 12.3313C33.2266 12.3782 33.332 12.425 33.3867 12.4719C33.4258 12.4954 33.4609 12.5149 33.4922 12.5305C33.5312 12.5383 33.5742 12.5305 33.6211 12.5071C33.668 12.4758 33.7305 12.4211 33.8086 12.343C34.1133 12.0618 34.3633 11.804 34.5586 11.5696C34.7539 11.3352 34.9609 11.0344 35.1797 10.6672C35.8438 9.55005 36.3711 8.69458 36.7617 8.10083C37.293 7.28052 37.8984 6.49146 38.5781 5.73364C39.2578 4.97583 39.8516 4.38989 40.3594 3.97583C40.5 3.85864 40.668 3.77271 40.8633 3.71802C41.0586 3.65552 41.2344 3.64771 41.3906 3.69458C41.5469 3.73364 41.6367 3.85083 41.6602 4.04614C41.6289 4.29614 41.3711 4.78052 40.8867 5.49927C40.1289 6.60083 39.3164 7.62817 38.4492 8.5813C37.5898 9.52661 36.7734 10.3547 36 11.0657C35.6797 11.3782 35.4336 11.6477 35.2617 11.8743C35.0898 12.093 34.8867 12.4016 34.6523 12.8C33.8555 14.1204 33.0586 15.4211 32.2617 16.7024C31.4727 17.9836 30.8086 19.05 30.2695 19.9016C29.7383 20.761 29.457 21.2102 29.4258 21.2493C29.3711 21.3352 29.3047 21.386 29.2266 21.4016C29.1562 21.4172 29.1055 21.3977 29.0742 21.343C29.043 21.2883 29.0625 21.1985 29.1328 21.0735C29.5781 20.3 30.1328 19.3313 30.7969 18.1672C31.7812 16.4407 32.5898 15.0383 33.2227 13.9602C33.3867 13.7024 33.4492 13.5852 33.4102 13.6086C33.3711 13.6321 33.2539 13.7415 33.0586 13.9368C33.0273 13.9758 32.9922 14.0149 32.9531 14.054ZM37.9219 8.26489C38.8125 7.34302 39.6406 6.32739 40.4062 5.21802C40.5859 4.94458 40.6914 4.76099 40.7227 4.66724C40.7539 4.56567 40.7344 4.52661 40.6641 4.55005C40.6016 4.56567 40.5078 4.62036 40.3828 4.71411C40.2656 4.80005 40.1445 4.89771 40.0195 5.00708C39.8945 5.11646 39.793 5.21021 39.7148 5.28833C39.3008 5.72583 38.8438 6.25708 38.3438 6.88208C37.8516 7.49927 37.4336 8.06958 37.0898 8.59302C36.832 9.00708 36.6719 9.28833 36.6094 9.43677C36.5469 9.57739 36.5547 9.62427 36.6328 9.57739C36.7109 9.52271 36.832 9.40942 36.9961 9.23755C37.168 9.06567 37.3516 8.87427 37.5469 8.66333C37.6719 8.52271 37.7969 8.38989 37.9219 8.26489ZM32.9883 12.8C32.4492 12.7375 31.8164 12.9641 31.0898 13.4797C30.3633 13.9875 29.6797 14.5852 29.0391 15.2727C28.4062 15.9524 27.9609 16.5188 27.7031 16.9719C27.5859 17.1829 27.5195 17.3391 27.5039 17.4407C27.4805 17.55 27.5625 17.554 27.75 17.4524C28.3125 17.1399 29.0781 16.5813 30.0469 15.7766C31.0156 14.9641 32.0195 14.0618 33.0586 13.0696C33.1367 12.9993 33.1719 12.9446 33.1641 12.9055C33.1562 12.8586 33.0977 12.8235 32.9883 12.8ZM43.4766 12.2961C43.6719 12.1868 43.8398 12.1985 43.9805 12.3313C44.1211 12.4563 44.1836 12.6125 44.168 12.8C44.1602 12.9875 44.0352 13.1204 43.793 13.1985C43.5195 13.2922 43.2305 13.5696 42.9258 14.0305C42.6211 14.4915 42.3555 14.9875 42.1289 15.5188C41.9102 16.0422 41.7812 16.4524 41.7422 16.7493C41.7031 17.343 41.8125 17.6321 42.0703 17.6165C42.3281 17.6008 42.7656 17.3508 43.3828 16.8665C44 16.3821 44.6836 15.8157 45.4336 15.1672C46.1758 14.5188 46.875 13.9407 47.5312 13.4329C48.1875 12.9172 48.6797 12.6204 49.0078 12.5422C49.4453 12.5891 49.6562 12.7258 49.6406 12.9524C49.625 13.1711 49.5352 13.4211 49.3711 13.7024C49.3477 13.7415 49.3242 13.7844 49.3008 13.8313C48.9883 14.4329 48.6289 15.0149 48.2227 15.5774C48.0586 15.8196 47.8984 16.0618 47.7422 16.304C47.5469 16.6086 47.3555 16.9211 47.168 17.2415C47.0352 17.468 46.8984 17.6907 46.7578 17.9094C46.7344 17.9485 46.7109 17.9875 46.6875 18.0266C46.625 18.1125 46.5664 18.2024 46.5117 18.2961C46.4648 18.3899 46.457 18.4797 46.4883 18.5657C46.5117 18.6907 46.4766 18.7883 46.3828 18.8586C46.1797 19.0071 46.0312 19.1438 45.9375 19.2688C45.8438 19.3938 45.7578 19.5344 45.6797 19.6907C45.6172 19.8157 45.5312 19.9641 45.4219 20.136C45.3359 20.2844 45.207 20.5032 45.0352 20.7922C44.6836 21.4016 44.2422 22.1282 43.7109 22.9719C43.1875 23.8235 42.6602 24.5618 42.1289 25.1868C41.6055 25.8118 41.1758 26.0969 40.8398 26.0422C40.6758 25.9954 40.5898 25.8899 40.582 25.7258C40.5664 25.5696 40.5859 25.4016 40.6406 25.2219C40.6953 25.0422 40.75 24.8899 40.8047 24.7649C40.8125 24.7415 40.8203 24.718 40.8281 24.6946C41.2578 23.6633 41.8672 22.6633 42.6562 21.6946C43.4453 20.7258 44.2656 19.886 45.1172 19.175C45.2891 19.0344 45.418 18.9016 45.5039 18.7766C45.5977 18.6594 45.6953 18.5188 45.7969 18.3547C45.8203 18.3157 45.8438 18.2805 45.8672 18.2493L48.1992 14.511C48.6133 13.8469 48.7773 13.4836 48.6914 13.4211C48.6055 13.3586 48.3516 13.4954 47.9297 13.8313C47.5078 14.1594 46.9961 14.5852 46.3945 15.1086C45.6133 15.7805 44.8359 16.4172 44.0625 17.0188C43.2891 17.6204 42.6797 17.9719 42.2344 18.0735C41.8672 18.136 41.5703 18.054 41.3438 17.8274C41.125 17.6086 41.043 17.1868 41.0977 16.5618C41.1992 15.7961 41.4805 15.0266 41.9414 14.2532C42.4102 13.4797 42.9219 12.8274 43.4766 12.2961ZM42.3281 23.8157C42.3359 23.8 42.3555 23.7727 42.3867 23.7336C42.4883 23.5774 42.6484 23.3352 42.8672 23.0071C43.0859 22.6868 43.3086 22.3469 43.5352 21.9875C43.7695 21.636 43.957 21.3352 44.0977 21.0852C44.2383 20.843 44.2812 20.7258 44.2266 20.7336C44.1562 20.7649 43.9922 20.9485 43.7344 21.2844C43.4766 21.6204 43.1836 22.0188 42.8555 22.4797C42.5352 22.9407 42.2422 23.3743 41.9766 23.7805C41.7109 24.1868 41.5352 24.4758 41.4492 24.6477C41.3008 25.0149 41.2266 25.2375 41.2266 25.3157C41.2266 25.3938 41.2734 25.3743 41.3672 25.2571C41.4609 25.1477 41.5742 24.9915 41.707 24.7883C41.8477 24.593 41.9727 24.4016 42.082 24.2141C42.1992 24.0266 42.2812 23.8938 42.3281 23.8157ZM52.3711 17.3469C51.8242 17.8782 51.3086 18.0735 50.8242 17.9329C50.3477 17.7922 50.1172 17.3782 50.1328 16.6907C50.1484 15.9954 50.6367 15.0891 51.5977 13.9719C51.9648 13.5735 52.2578 13.343 52.4766 13.2805C52.6562 13.218 52.793 13.2258 52.8867 13.304C52.9805 13.3743 52.9844 13.5188 52.8984 13.7375C52.7344 13.9094 52.6016 14.0149 52.5 14.054C52.3984 14.093 52.3164 14.1086 52.2539 14.1008C52.2227 14.1008 52.1914 14.1047 52.1602 14.1125C52.1367 14.1125 52.1133 14.1282 52.0898 14.1594C51.3477 15.0422 50.8945 15.7532 50.7305 16.2922C50.5742 16.8313 50.5977 17.1946 50.8008 17.3821C51.0039 17.5774 51.2773 17.5852 51.6211 17.4055C51.7773 17.3118 51.9531 17.136 52.1484 16.8782C52.3438 16.6204 52.5039 16.3665 52.6289 16.1165C52.6523 16.0774 52.6719 16.0461 52.6875 16.0227C52.7109 15.9915 52.7227 15.9641 52.7227 15.9407C52.7227 15.9172 52.7031 15.8899 52.6641 15.8586C52.5234 15.718 52.4023 15.5344 52.3008 15.3079C52.1992 15.0735 52.1797 14.8625 52.2422 14.675C52.3047 14.55 52.4219 14.4954 52.5938 14.511C52.7656 14.5266 52.9297 14.6165 53.0859 14.7805C53.2422 14.9446 53.3242 15.1907 53.332 15.5188C53.3477 15.7532 53.4297 15.9172 53.5781 16.011C53.7266 16.0969 53.8906 16.1282 54.0703 16.1047C54.25 16.0735 54.3984 16.0032 54.5156 15.8938C54.6172 15.8 54.6875 15.7766 54.7266 15.8235C54.7734 15.8625 54.7695 15.9329 54.7148 16.0344C54.6602 16.136 54.5391 16.2297 54.3516 16.3157C54.0547 16.4329 53.8242 16.4758 53.6602 16.4446C53.5039 16.4133 53.3867 16.3704 53.3086 16.3157C53.2539 16.2688 53.2031 16.2493 53.1562 16.2571C53.1094 16.2571 53.0625 16.304 53.0156 16.3977C52.9375 16.5383 52.8359 16.7024 52.7109 16.8899C52.5938 17.0774 52.4805 17.2297 52.3711 17.3469ZM55.793 14.8743C55.7773 14.8899 55.7539 14.9016 55.7227 14.9094C55.6992 14.9172 55.6719 14.925 55.6406 14.9329C55.6172 14.9407 55.6016 14.9563 55.5938 14.9797C55.4922 15.1204 55.3789 15.304 55.2539 15.5305C55.1289 15.7571 55.0234 15.9875 54.9375 16.2219C54.8594 16.4485 54.8281 16.6438 54.8438 16.8079C54.8594 16.9641 54.9609 17.0422 55.1484 17.0422C55.75 16.9797 56.4297 16.6868 57.1875 16.1633C57.9453 15.6399 58.5977 15.1477 59.1445 14.6868C59.2461 14.6086 59.3359 14.5383 59.4141 14.4758C59.5547 14.3508 59.7227 14.2258 59.918 14.1008C60.1133 13.9758 60.3008 13.8938 60.4805 13.8547C60.6602 13.8157 60.7891 13.8586 60.8672 13.9836C60.8828 14.1711 60.8477 14.4055 60.7617 14.6868C60.6133 15.3586 60.6367 15.7922 60.832 15.9875C61.0273 16.1829 61.3281 16.2297 61.7344 16.1282C62.1484 16.0266 62.6016 15.8665 63.0938 15.6477C63.25 15.5696 63.3555 15.5461 63.4102 15.5774C63.4648 15.6086 63.4766 15.6633 63.4453 15.7415C63.4141 15.8196 63.3398 15.886 63.2227 15.9407C62.668 16.2297 62.1328 16.429 61.6172 16.5383C61.1094 16.6399 60.7031 16.593 60.3984 16.3977C60.0938 16.2024 59.9727 15.8 60.0352 15.1907C60.0742 14.9172 60.0625 14.7766 60 14.7688C59.9453 14.761 59.8008 14.8586 59.5664 15.0618C59.5586 15.0696 59.5469 15.0774 59.5312 15.0852C59.4688 15.1399 59.3984 15.1985 59.3203 15.261C58.7656 15.7375 58.1211 16.218 57.3867 16.7024C56.6523 17.1868 55.9375 17.4563 55.2422 17.511C54.9922 17.5188 54.7773 17.4758 54.5977 17.3821C54.3164 17.1711 54.1953 16.8938 54.2344 16.55C54.2656 16.2063 54.375 15.8547 54.5625 15.4954C54.75 15.136 54.9258 14.8313 55.0898 14.5813C55.1289 14.511 55.1641 14.4485 55.1953 14.3938C55.2734 14.2766 55.375 14.1907 55.5 14.136C55.6328 14.0735 55.7461 14.05 55.8398 14.0657C55.9258 14.0735 55.9922 14.1008 56.0391 14.1477C56.0938 14.1946 56.1055 14.2766 56.0742 14.3938C56.043 14.511 55.9492 14.6711 55.793 14.8743ZM71.3555 14.2297C71.3711 14.2141 71.3906 14.1985 71.4141 14.1829C71.6953 13.9641 72.0391 13.7258 72.4453 13.468C72.8594 13.2102 73.2773 13.0383 73.6992 12.9524C74.1289 12.8586 74.5039 12.9524 74.8242 13.2336C75.2305 13.6711 75.2227 14.2063 74.8008 14.8391C74.3789 15.4719 73.707 16.093 72.7852 16.7024C71.8711 17.304 70.8711 17.7883 69.7852 18.1555C68.707 18.5305 67.7148 18.6829 66.8086 18.6125C66.668 18.5891 66.5742 18.5461 66.5273 18.4836C66.4727 18.429 66.4688 18.3782 66.5156 18.3313C66.5625 18.2844 66.6602 18.2649 66.8086 18.2727C67.6133 18.343 68.4805 18.2102 69.4102 17.8743C70.3398 17.5383 71.2109 17.1047 72.0234 16.5735C72.8359 16.0422 73.4766 15.5149 73.9453 14.9915C74.4141 14.4602 74.5898 14.0344 74.4727 13.7141C74.3086 13.4094 73.9805 13.3625 73.4883 13.5735C72.9961 13.7844 72.4531 14.1204 71.8594 14.5813C71.2656 15.0344 70.7266 15.4836 70.2422 15.929C69.7578 16.3743 69.4336 16.675 69.2695 16.8313C69.2617 16.8391 69.2578 16.8469 69.2578 16.8547C69.25 16.8625 69.2461 16.8665 69.2461 16.8665C69.2383 16.8665 69.2344 16.8665 69.2344 16.8665C69.1641 16.9211 69.0898 16.9407 69.0117 16.925C68.9258 16.9094 68.8516 16.8665 68.7891 16.7961C68.75 16.7258 68.7344 16.6555 68.7422 16.5852C68.7422 16.5071 68.7734 16.4407 68.8359 16.386L68.9297 16.2922C68.9844 16.2297 69.1562 15.9875 69.4453 15.5657C69.7344 15.136 70.207 14.3782 70.8633 13.2922C71.5195 12.2063 72.4375 10.6477 73.6172 8.61646C75.2656 5.78833 76.3516 4.15552 76.875 3.71802C77.0234 3.57739 77.1641 3.50708 77.2969 3.50708C77.4375 3.50708 77.5586 3.53052 77.6602 3.57739C77.7773 3.61646 77.8477 3.68677 77.8711 3.78833C77.9023 3.88208 77.9023 4.01489 77.8711 4.18677C77.7852 4.70239 77.4961 5.42896 77.0039 6.36646C76.4727 7.31177 75.6992 8.43286 74.6836 9.72974C73.6758 11.0266 72.7617 12.1165 71.9414 12.9993C71.7617 13.2961 71.625 13.5188 71.5312 13.6672C71.4766 13.7688 71.418 13.8743 71.3555 13.9836C71.3398 14.0071 71.3242 14.0344 71.3086 14.0657C71.2148 14.2063 71.1641 14.2922 71.1562 14.3235C71.1562 14.3547 71.2227 14.3235 71.3555 14.2297ZM74.4141 8.51099C74.1797 8.92505 73.9688 9.29224 73.7812 9.61255C73.3203 10.386 73.0977 10.7922 73.1133 10.8313C73.1289 10.8625 73.5312 10.3391 74.3203 9.26099C75.2422 8.01099 75.9531 6.94458 76.4531 6.06177C76.8281 5.35864 77.0508 4.90552 77.1211 4.70239C77.1992 4.49927 77.1719 4.47583 77.0391 4.63208C76.9062 4.78052 76.7109 5.03833 76.4531 5.40552C76.2031 5.76489 75.9336 6.15942 75.6445 6.58911C75.3633 7.0188 75.1055 7.41333 74.8711 7.77271C74.6445 8.13208 74.4922 8.37817 74.4141 8.51099ZM77.0977 14.8743C77.082 14.8899 77.0586 14.9016 77.0273 14.9094C77.0039 14.9172 76.9766 14.925 76.9453 14.9329C76.9219 14.9407 76.9062 14.9563 76.8984 14.9797C76.7969 15.1204 76.6836 15.304 76.5586 15.5305C76.4336 15.7571 76.3281 15.9875 76.2422 16.2219C76.1641 16.4485 76.1328 16.6438 76.1484 16.8079C76.1641 16.9641 76.2656 17.0422 76.4531 17.0422C77.0547 16.9797 77.7344 16.6868 78.4922 16.1633C79.25 15.6399 79.9023 15.1477 80.4492 14.6868C80.5508 14.6086 80.6406 14.5383 80.7188 14.4758C80.8594 14.3508 81.0273 14.2258 81.2227 14.1008C81.418 13.9758 81.6055 13.8938 81.7852 13.8547C81.9648 13.8157 82.0938 13.8586 82.1719 13.9836C82.1875 14.1711 82.1523 14.4055 82.0664 14.6868C81.918 15.3586 81.9414 15.7922 82.1367 15.9875C82.332 16.1829 82.6328 16.2297 83.0391 16.1282C83.4531 16.0266 83.9062 15.8665 84.3984 15.6477C84.5547 15.5696 84.6602 15.5461 84.7148 15.5774C84.7695 15.6086 84.7812 15.6633 84.75 15.7415C84.7188 15.8196 84.6445 15.886 84.5273 15.9407C83.9727 16.2297 83.4375 16.429 82.9219 16.5383C82.4141 16.6399 82.0078 16.593 81.7031 16.3977C81.3984 16.2024 81.2773 15.8 81.3398 15.1907C81.3789 14.9172 81.3672 14.7766 81.3047 14.7688C81.25 14.761 81.1055 14.8586 80.8711 15.0618C80.8633 15.0696 80.8516 15.0774 80.8359 15.0852C80.7734 15.1399 80.7031 15.1985 80.625 15.261C80.0703 15.7375 79.4258 16.218 78.6914 16.7024C77.957 17.1868 77.2422 17.4563 76.5469 17.511C76.2969 17.5188 76.082 17.4758 75.9023 17.3821C75.6211 17.1711 75.5 16.8938 75.5391 16.55C75.5703 16.2063 75.6797 15.8547 75.8672 15.4954C76.0547 15.136 76.2305 14.8313 76.3945 14.5813C76.4336 14.511 76.4688 14.4485 76.5 14.3938C76.5781 14.2766 76.6797 14.1907 76.8047 14.136C76.9375 14.0735 77.0508 14.05 77.1445 14.0657C77.2305 14.0735 77.2969 14.1008 77.3438 14.1477C77.3984 14.1946 77.4102 14.2766 77.3789 14.3938C77.3477 14.511 77.2539 14.6711 77.0977 14.8743ZM87.2812 11.7454C87.4922 11.761 87.5898 11.8274 87.5742 11.9446C87.5586 12.054 87.4805 12.1672 87.3398 12.2844C87.207 12.3938 87.0625 12.468 86.9062 12.5071C86.7578 12.5383 86.6484 12.4875 86.5781 12.3547C86.5625 12.3157 86.5664 12.2805 86.5898 12.2493C86.6211 12.2102 86.6602 12.179 86.707 12.1555C86.7617 12.1243 86.8086 12.0969 86.8477 12.0735C86.8789 12.0657 86.9023 12.0579 86.918 12.05C86.9336 12.0422 86.9414 12.0344 86.9414 12.0266C86.9492 11.9407 86.9844 11.8704 87.0469 11.8157C87.1094 11.761 87.1875 11.7375 87.2812 11.7454ZM84.668 17.3118C84.3633 17.3118 84.1836 17.2141 84.1289 17.0188C84.0742 16.8235 84.1016 16.5774 84.2109 16.2805C84.3125 15.9758 84.457 15.6594 84.6445 15.3313C84.832 14.9954 85.0195 14.6907 85.207 14.4172C85.3945 14.136 85.543 13.9211 85.6523 13.7727C85.6836 13.718 85.7109 13.679 85.7344 13.6555C85.6875 13.5305 85.7305 13.3938 85.8633 13.2454C85.9961 13.0891 86.1523 12.9758 86.332 12.9055C86.5117 12.8274 86.6406 12.8391 86.7188 12.9407C86.7734 13.0266 86.7852 13.1086 86.7539 13.1868C86.7227 13.2649 86.6797 13.3391 86.625 13.4094C86.6094 13.425 86.5938 13.4446 86.5781 13.468C86.2812 13.8899 85.957 14.3625 85.6055 14.886C85.2617 15.4016 85.0039 15.8352 84.832 16.1868C84.6992 16.4915 84.7812 16.6594 85.0781 16.6907C85.3828 16.7219 85.7734 16.675 86.25 16.55C86.7344 16.425 87.1758 16.2922 87.5742 16.1516C87.9805 16.0032 88.2227 15.9055 88.3008 15.8586C88.3867 15.8118 88.4531 15.804 88.5 15.8352C88.5547 15.8665 88.5781 15.9172 88.5703 15.9875C88.5625 16.05 88.5078 16.1165 88.4062 16.1868C87.8984 16.468 87.2344 16.7258 86.4141 16.9602C85.6016 17.1946 85.0195 17.3118 84.668 17.3118ZM83.4727 24.0149C83.3867 23.9758 83.3516 23.8938 83.3672 23.7688C83.375 23.6438 83.4609 23.4329 83.625 23.136C83.7812 22.8391 84.0352 22.4055 84.3867 21.8352C84.7305 21.2649 85.1914 20.511 85.7695 19.5735C86.4258 18.5266 87.2617 17.1829 88.2773 15.5422C88.543 15.0422 89.0859 14.1047 89.9062 12.7297C90.7266 11.3469 91.6406 9.85474 92.6484 8.25317C93.6562 6.6438 94.5742 5.24536 95.4023 4.05786C96.2383 2.86255 96.8086 2.19458 97.1133 2.05396C97.5898 1.91333 97.8242 2.03052 97.8164 2.40552C97.8164 2.77271 97.6836 3.24927 97.418 3.83521C97.1602 4.41333 96.8828 4.96021 96.5859 5.47583C96.2969 5.98364 96.1055 6.31177 96.0117 6.46021C96.0039 6.46802 96 6.47583 96 6.48364C94.9297 8.21021 93.7461 9.94458 92.4492 11.6868C91.1602 13.429 90.168 14.5969 89.4727 15.1907C89.3398 15.2844 89.25 15.343 89.2031 15.3665C89.1641 15.3899 89.1289 15.4133 89.0977 15.4368C89.0742 15.4602 89.043 15.4993 89.0039 15.554C88.9648 15.6086 88.9102 15.6946 88.8398 15.8118L84.1875 23.3938C84.2109 23.3938 84.207 23.4329 84.1758 23.511C84.1367 23.5969 84.082 23.6868 84.0117 23.7805C83.9414 23.8821 83.8594 23.9563 83.7656 24.0032C83.6641 24.0579 83.5664 24.0618 83.4727 24.0149ZM90.1758 13.6555C90.0664 13.8274 90.0117 13.925 90.0117 13.9485C90.0195 13.9719 90.0938 13.8977 90.2344 13.7258C91.0078 12.7415 91.8711 11.5579 92.8242 10.175C93.7773 8.79224 94.6562 7.45239 95.4609 6.15552C96.4219 4.56177 96.9766 3.53442 97.125 3.07349C97.2812 2.61255 97.082 2.74536 96.5273 3.47192C95.7461 4.55005 94.9766 5.70239 94.2188 6.92896C93.4609 8.15552 92.7188 9.38989 91.9922 10.6321C91.375 11.679 90.7695 12.6868 90.1758 13.6555ZM96.5859 14.054C96.2109 14.429 95.7266 14.886 95.1328 15.425C94.5391 15.9563 93.9258 16.4641 93.293 16.9485C92.6602 17.425 92.1055 17.7571 91.6289 17.9446C91.1445 18.1399 90.832 18.0774 90.6914 17.7571C90.6055 17.468 90.7578 17.0071 91.1484 16.3743C91.5312 15.7415 92.0469 15.0891 92.6953 14.4172C93.3438 13.7454 94.0273 13.1985 94.7461 12.7766C95.4648 12.3547 96.1172 12.2063 96.7031 12.3313C96.8594 12.3782 96.9648 12.425 97.0195 12.4719C97.0586 12.4954 97.0938 12.5149 97.125 12.5305C97.1641 12.5383 97.207 12.5305 97.2539 12.5071C97.3008 12.4758 97.3633 12.4211 97.4414 12.343C97.7461 12.0618 97.9961 11.804 98.1914 11.5696C98.3867 11.3352 98.5938 11.0344 98.8125 10.6672C99.4766 9.55005 100.004 8.69458 100.395 8.10083C100.926 7.28052 101.531 6.49146 102.211 5.73364C102.891 4.97583 103.484 4.38989 103.992 3.97583C104.133 3.85864 104.301 3.77271 104.496 3.71802C104.691 3.65552 104.867 3.64771 105.023 3.69458C105.18 3.73364 105.27 3.85083 105.293 4.04614C105.262 4.29614 105.004 4.78052 104.52 5.49927C103.762 6.60083 102.949 7.62817 102.082 8.5813C101.223 9.52661 100.406 10.3547 99.6328 11.0657C99.3125 11.3782 99.0664 11.6477 98.8945 11.8743C98.7227 12.093 98.5195 12.4016 98.2852 12.8C97.4883 14.1204 96.6914 15.4211 95.8945 16.7024C95.1055 17.9836 94.4414 19.05 93.9023 19.9016C93.3711 20.761 93.0898 21.2102 93.0586 21.2493C93.0039 21.3352 92.9375 21.386 92.8594 21.4016C92.7891 21.4172 92.7383 21.3977 92.707 21.343C92.6758 21.2883 92.6953 21.1985 92.7656 21.0735C93.2109 20.3 93.7656 19.3313 94.4297 18.1672C95.4141 16.4407 96.2227 15.0383 96.8555 13.9602C97.0195 13.7024 97.082 13.5852 97.043 13.6086C97.0039 13.6321 96.8867 13.7415 96.6914 13.9368C96.6602 13.9758 96.625 14.0149 96.5859 14.054ZM101.555 8.26489C102.445 7.34302 103.273 6.32739 104.039 5.21802C104.219 4.94458 104.324 4.76099 104.355 4.66724C104.387 4.56567 104.367 4.52661 104.297 4.55005C104.234 4.56567 104.141 4.62036 104.016 4.71411C103.898 4.80005 103.777 4.89771 103.652 5.00708C103.527 5.11646 103.426 5.21021 103.348 5.28833C102.934 5.72583 102.477 6.25708 101.977 6.88208C101.484 7.49927 101.066 8.06958 100.723 8.59302C100.465 9.00708 100.305 9.28833 100.242 9.43677C100.18 9.57739 100.188 9.62427 100.266 9.57739C100.344 9.52271 100.465 9.40942 100.629 9.23755C100.801 9.06567 100.984 8.87427 101.18 8.66333C101.305 8.52271 101.43 8.38989 101.555 8.26489ZM96.6211 12.8C96.082 12.7375 95.4492 12.9641 94.7227 13.4797C93.9961 13.9875 93.3125 14.5852 92.6719 15.2727C92.0391 15.9524 91.5938 16.5188 91.3359 16.9719C91.2188 17.1829 91.1523 17.3391 91.1367 17.4407C91.1133 17.55 91.1953 17.554 91.3828 17.4524C91.9453 17.1399 92.7109 16.5813 93.6797 15.7766C94.6484 14.9641 95.6523 14.0618 96.6914 13.0696C96.7695 12.9993 96.8047 12.9446 96.7969 12.9055C96.7891 12.8586 96.7305 12.8235 96.6211 12.8ZM104.602 9.26099C104.586 9.3313 104.527 9.37036 104.426 9.37817C104.324 9.37817 104.215 9.35474 104.098 9.30786C103.98 9.26099 103.895 9.20239 103.84 9.13208C103.785 9.05396 103.801 8.97192 103.887 8.88599C103.973 8.80005 104.164 8.71802 104.461 8.63989C105.938 8.38989 107.387 8.17505 108.809 7.99536C109.082 7.96411 109.289 7.93286 109.43 7.90161C109.578 7.87036 109.691 7.81958 109.77 7.74927C109.855 7.67114 109.941 7.55005 110.027 7.38599C110.168 7.1438 110.312 6.90161 110.461 6.65942C110.492 6.60474 110.523 6.55005 110.555 6.49536C111.766 4.47192 112.586 3.26489 113.016 2.87427C113.688 2.25708 113.977 2.35864 113.883 3.17896C113.727 4.24927 113.18 5.57739 112.242 7.16333C112.242 7.17114 112.238 7.18286 112.23 7.19849C112.09 7.41724 112.023 7.55005 112.031 7.59692C112.039 7.6438 112.129 7.65552 112.301 7.63208C112.332 7.63208 112.359 7.63208 112.383 7.63208C112.469 7.62427 112.555 7.62036 112.641 7.62036C114.586 7.49536 116.586 7.44067 118.641 7.4563C118.773 7.4563 118.859 7.48755 118.898 7.55005C118.938 7.60474 118.934 7.65942 118.887 7.71411C118.84 7.76099 118.746 7.78052 118.605 7.77271C116.402 7.73364 114.266 7.83521 112.195 8.07739C112.125 8.08521 112.062 8.09302 112.008 8.10083C111.891 8.10083 111.797 8.11646 111.727 8.14771C111.656 8.17896 111.582 8.25708 111.504 8.38208C110.527 9.88208 109.504 11.2922 108.434 12.6125C107.371 13.9329 106.484 14.9172 105.773 15.5657C105.734 15.6047 105.703 15.6321 105.68 15.6477C105.656 15.6633 105.637 15.675 105.621 15.6829C105.605 15.6907 105.59 15.7024 105.574 15.718C105.559 15.7336 105.539 15.7571 105.516 15.7883C105.492 15.8196 105.461 15.8704 105.422 15.9407C103.688 18.7063 101.941 21.4641 100.184 24.2141C100.324 24.2141 100.391 24.2649 100.383 24.3665C100.367 24.4758 100.305 24.5735 100.195 24.6594C99.8516 24.9172 99.6133 24.9954 99.4805 24.8938C99.3477 24.7922 99.3555 24.5696 99.5039 24.2258C99.9102 23.5852 100.316 22.9485 100.723 22.3157C103.559 17.9094 106.348 13.4563 109.09 8.9563C109.121 8.8938 109.152 8.83911 109.184 8.79224C109.277 8.65942 109.32 8.56958 109.312 8.52271C109.312 8.46802 109.219 8.4563 109.031 8.48755C107.578 8.69849 106.102 8.93286 104.602 9.19067C104.602 9.21411 104.602 9.23755 104.602 9.26099ZM110.719 7.33911C110.641 7.47192 110.586 7.5813 110.555 7.66724C110.523 7.75317 110.543 7.79224 110.613 7.78442C110.73 7.7688 110.848 7.75708 110.965 7.74927C111.043 7.74927 111.105 7.74146 111.152 7.72583C111.199 7.71021 111.242 7.67896 111.281 7.63208C111.32 7.57739 111.371 7.49927 111.434 7.39771C112.301 5.91333 112.902 4.60083 113.238 3.46021C112.816 3.92896 112.086 5.03833 111.047 6.78833C111 6.86646 110.953 6.94458 110.906 7.02271C110.844 7.12427 110.781 7.22974 110.719 7.33911ZM109.98 8.56958C109.715 9.00708 109.438 9.46802 109.148 9.95239C108.453 11.1555 107.711 12.3586 106.922 13.5618C106.516 14.1711 106.543 14.2219 107.004 13.7141C108.184 12.3391 109.406 10.6555 110.672 8.66333C110.758 8.51489 110.816 8.41333 110.848 8.35864C110.879 8.29614 110.879 8.26099 110.848 8.25317C110.824 8.23755 110.773 8.23364 110.695 8.24146C110.688 8.24146 110.676 8.24146 110.66 8.24146C110.645 8.24927 110.625 8.25317 110.602 8.25317C110.469 8.26099 110.352 8.28442 110.25 8.32349C110.148 8.35474 110.059 8.43677 109.98 8.56958ZM108.609 15.554C108.609 15.554 108.613 15.55 108.621 15.5422C108.668 15.5032 108.781 15.3977 108.961 15.2258L114.68 6.03833C115.102 5.77271 115.379 5.7063 115.512 5.83911C115.645 5.96411 115.688 6.19849 115.641 6.54224C115.602 6.87817 115.523 7.22192 115.406 7.57349C115.289 7.92505 115.191 8.19067 115.113 8.37036C114.621 9.42505 113.973 10.4719 113.168 11.511C112.363 12.5422 111.586 13.4485 110.836 14.2297C110.086 15.011 109.551 15.5461 109.23 15.8352L108.539 16.8782C108.336 17.175 108.277 17.3 108.363 17.2532C108.449 17.2141 108.625 17.0735 108.891 16.8313C109.516 16.2454 110.191 15.636 110.918 15.0032C111.652 14.3704 112.336 13.8469 112.969 13.4329C113.609 13.011 114.102 12.8313 114.445 12.8938C114.898 13.011 114.996 13.5344 114.738 14.4641C114.551 15.1985 114.469 15.7532 114.492 16.1282C114.523 16.5032 114.629 16.718 114.809 16.7727C115.293 16.8977 116.172 16.5852 117.445 15.8352C117.523 15.7883 117.59 15.7844 117.645 15.8235C117.707 15.8625 117.734 15.9211 117.727 15.9993C117.727 16.0696 117.676 16.1399 117.574 16.2102C116.895 16.6399 116.309 16.9524 115.816 17.1477C115.332 17.343 114.93 17.3899 114.609 17.2883C113.883 17.093 113.77 16.0735 114.27 14.2297C114.426 13.6125 114.352 13.3391 114.047 13.4094C113.742 13.4797 113.305 13.7532 112.734 14.2297C112.164 14.6985 111.555 15.2375 110.906 15.8469C110.164 16.5344 109.496 17.1165 108.902 17.593C108.309 18.0696 107.918 18.2493 107.73 18.1321C107.598 18.0383 107.543 17.9055 107.566 17.7336C107.59 17.5696 107.652 17.3938 107.754 17.2063C107.848 17.0188 107.938 16.8586 108.023 16.7258C108.055 16.679 108.082 16.636 108.105 16.5969L108.375 16.1633C108.445 16.0227 108.488 15.8977 108.504 15.7883C108.52 15.6868 108.555 15.6086 108.609 15.554ZM111.914 11.6868C110.891 13.2258 110.973 13.2532 112.16 11.7688C112.98 10.8157 113.664 9.82739 114.211 8.80396C114.531 8.17896 114.707 7.79614 114.738 7.65552C114.777 7.51489 114.715 7.54614 114.551 7.74927C114.387 7.95239 114.168 8.25317 113.895 8.65161C113.629 9.05005 113.352 9.47192 113.062 9.91724C112.773 10.3547 112.523 10.7415 112.312 11.0774C112.109 11.3899 111.977 11.593 111.914 11.6868ZM120.211 11.7454C120.422 11.761 120.52 11.8274 120.504 11.9446C120.488 12.054 120.41 12.1672 120.27 12.2844C120.137 12.3938 119.992 12.468 119.836 12.5071C119.688 12.5383 119.578 12.4875 119.508 12.3547C119.492 12.3157 119.496 12.2805 119.52 12.2493C119.551 12.2102 119.59 12.179 119.637 12.1555C119.691 12.1243 119.738 12.0969 119.777 12.0735C119.809 12.0657 119.832 12.0579 119.848 12.05C119.863 12.0422 119.871 12.0344 119.871 12.0266C119.879 11.9407 119.914 11.8704 119.977 11.8157C120.039 11.761 120.117 11.7375 120.211 11.7454ZM117.598 17.3118C117.293 17.3118 117.113 17.2141 117.059 17.0188C117.004 16.8235 117.031 16.5774 117.141 16.2805C117.242 15.9758 117.387 15.6594 117.574 15.3313C117.762 14.9954 117.949 14.6907 118.137 14.4172C118.324 14.136 118.473 13.9211 118.582 13.7727C118.613 13.718 118.641 13.679 118.664 13.6555C118.617 13.5305 118.66 13.3938 118.793 13.2454C118.926 13.0891 119.082 12.9758 119.262 12.9055C119.441 12.8274 119.57 12.8391 119.648 12.9407C119.703 13.0266 119.715 13.1086 119.684 13.1868C119.652 13.2649 119.609 13.3391 119.555 13.4094C119.539 13.425 119.523 13.4446 119.508 13.468C119.211 13.8899 118.887 14.3625 118.535 14.886C118.191 15.4016 117.934 15.8352 117.762 16.1868C117.629 16.4915 117.711 16.6594 118.008 16.6907C118.312 16.7219 118.703 16.675 119.18 16.55C119.664 16.425 120.105 16.2922 120.504 16.1516C120.91 16.0032 121.152 15.9055 121.23 15.8586C121.316 15.8118 121.383 15.804 121.43 15.8352C121.484 15.8665 121.508 15.9172 121.5 15.9875C121.492 16.05 121.438 16.1165 121.336 16.1868C120.828 16.468 120.164 16.7258 119.344 16.9602C118.531 17.1946 117.949 17.3118 117.598 17.3118ZM120.316 17.2883C120.379 17.2493 120.453 17.1399 120.539 16.9602C120.625 16.7805 120.723 16.5618 120.832 16.304C121.035 15.7883 121.273 15.2844 121.547 14.7922C121.82 14.3 122.129 14.0227 122.473 13.9602C122.582 13.9836 122.664 14.0383 122.719 14.1243C122.773 14.2024 122.758 14.2961 122.672 14.4055C122.539 14.5852 122.422 14.7297 122.32 14.8391C122.227 14.9407 122.129 15.0422 122.027 15.1438C121.926 15.2454 121.801 15.3743 121.652 15.5305C121.551 15.7883 121.453 16.0461 121.359 16.304C121.32 16.429 121.277 16.55 121.23 16.6672C121.207 16.7532 121.191 16.8157 121.184 16.8547C121.184 16.886 121.195 16.9016 121.219 16.9016C121.25 16.9016 121.289 16.8938 121.336 16.8782C121.344 16.8704 121.352 16.8665 121.359 16.8665C121.516 16.8196 121.625 16.8235 121.688 16.8782C121.75 16.925 121.77 16.9875 121.746 17.0657C121.723 17.1438 121.664 17.2102 121.57 17.2649C121.484 17.3118 121.398 17.3391 121.312 17.3469C121.211 17.3625 121.113 17.4016 121.02 17.4641C120.965 17.5032 120.91 17.5618 120.855 17.6399C120.801 17.718 120.754 17.7922 120.715 17.8625C120.418 18.4329 119.996 18.968 119.449 19.468C118.902 19.968 118.254 20.2688 117.504 20.3704C116.918 20.425 116.633 20.3508 116.648 20.1477C116.664 19.9446 116.871 19.6672 117.27 19.3157C117.66 18.9719 118.137 18.6165 118.699 18.2493C119.262 17.8821 119.801 17.5618 120.316 17.2883ZM119.719 18.4016C119.758 18.3547 119.801 18.3 119.848 18.2375C119.895 18.1829 119.934 18.1282 119.965 18.0735C119.996 18.0188 120.012 17.9758 120.012 17.9446C120.012 17.9211 119.988 17.9172 119.941 17.9329C119.77 18.011 119.535 18.1516 119.238 18.3547C118.934 18.5657 118.625 18.7883 118.312 19.0227C118 19.2649 117.75 19.4719 117.562 19.6438C117.367 19.8157 117.293 19.9055 117.34 19.9133C117.598 19.929 117.969 19.7844 118.453 19.4797C118.938 19.1829 119.359 18.8235 119.719 18.4016ZM123.762 20.1243C123.879 19.9446 124.004 19.8821 124.137 19.9368C124.277 19.9915 124.371 20.1165 124.418 20.3118C124.434 20.4133 124.422 20.5071 124.383 20.593C124.344 20.6868 124.289 20.7532 124.219 20.7922C124.164 20.8157 124.113 20.8469 124.066 20.886C124.004 20.9329 123.953 20.9602 123.914 20.968C123.805 20.9836 123.727 20.9407 123.68 20.8391C123.641 20.7375 123.629 20.6165 123.645 20.4758C123.668 20.343 123.707 20.2258 123.762 20.1243ZM130.781 11.4993C129.969 12.5305 129.074 13.4797 128.098 14.3469C127.293 15.0735 126.555 15.8313 125.883 16.6204C125.219 17.4016 124.723 18.2883 124.395 19.2805C124.355 19.4055 124.297 19.4641 124.219 19.4563C124.141 19.4563 124.074 19.4133 124.02 19.3274C123.965 19.2493 123.953 19.1438 123.984 19.011C124.336 17.9094 124.84 16.968 125.496 16.1868C126.152 15.4055 126.871 14.6672 127.652 13.9719C128.105 13.55 128.559 13.1086 129.012 12.6477C129.465 12.1868 129.898 11.6829 130.312 11.136C131.07 10.0969 131.461 9.34302 131.484 8.87427C131.508 8.40552 131.281 8.15161 130.805 8.11255C130.336 8.07349 129.738 8.17896 129.012 8.42896C128.293 8.67114 127.566 8.98364 126.832 9.36646C126.105 9.74927 125.496 10.1282 125.004 10.5032C124.52 10.8782 124.273 11.1711 124.266 11.3821C124.281 11.554 124.367 11.6633 124.523 11.7102C124.688 11.7571 124.867 11.7649 125.062 11.7336C125.266 11.7024 125.434 11.6477 125.566 11.5696C125.613 11.5305 125.652 11.4797 125.684 11.4172C125.707 11.3625 125.734 11.3157 125.766 11.2766C125.805 11.2375 125.863 11.2297 125.941 11.2532C126.02 11.2688 126.129 11.3313 126.27 11.4407C126.449 11.5891 126.508 11.7258 126.445 11.8508C126.383 11.968 126.266 12.0618 126.094 12.1321C125.93 12.2024 125.781 12.2415 125.648 12.2493C124.977 12.2805 124.5 12.2219 124.219 12.0735C123.938 11.9172 123.793 11.7102 123.785 11.4524C123.793 11.0696 124.078 10.6438 124.641 10.175C125.211 9.69849 125.918 9.24927 126.762 8.82739C127.605 8.40552 128.449 8.08521 129.293 7.86646C130.137 7.63989 130.832 7.58521 131.379 7.70239C131.926 7.81177 132.184 8.16724 132.152 8.7688C132.129 9.36255 131.672 10.2727 130.781 11.4993Z" fill="white"/>
</svg>
