<svg width="60" height="44" viewBox="0 0 60 44" fill="none" xmlns="http://www.w3.org/2000/svg">
<circle cx="13.7353" cy="13.7353" r="13.7353" fill="#B3B3B3"/>
<path fill-rule="evenodd" clip-rule="evenodd" d="M26.9231 10.0811C23.6198 13.1718 19.521 15.6413 14.9002 17.2582C15.0204 18.3116 15.0822 19.3827 15.0822 20.4683C15.0822 29.9411 10.3796 38.3156 3.18164 43.3846C16.8921 41.5651 27.4707 29.8281 27.4707 15.6203C27.4707 13.724 27.2823 11.8716 26.9231 10.0811Z" fill="#B3B3B3"/>
<circle cx="45.5146" cy="13.7353" r="13.7353" fill="#B3B3B3"/>
<path fill-rule="evenodd" clip-rule="evenodd" d="M58.702 10.0806C55.3988 13.1713 51.3 15.641 46.6793 17.2579C46.7994 18.3113 46.8612 19.3824 46.8612 20.4679C46.8612 29.9413 42.1581 38.3161 34.9595 43.3851C48.6705 41.5661 59.2498 29.8288 59.2498 15.6206C59.2498 13.724 59.0613 11.8714 58.702 10.0806Z" fill="#B3B3B3"/>
</svg>
